<svg width="90" height="90" viewBox="0 0 90 90" fill="none" xmlns="http://www.w3.org/2000/svg">
<g clip-path="url(#clip0_136_329)">
<path d="M39.2845 89.9967C60.9808 89.9967 78.5691 72.4084 78.5691 50.7122C78.5691 29.0159 60.9808 11.4276 39.2845 11.4276C17.5883 11.4276 0 29.0159 0 50.7122C0 72.4084 17.5883 89.9967 39.2845 89.9967Z" fill="#FD646F"/>
<path d="M78.569 50.7122C78.569 72.4078 60.9801 89.9967 39.2845 89.9967C27.5118 89.9967 16.9468 84.817 9.74829 76.6109C16.6631 82.68 25.7258 86.3593 35.647 86.3593C57.3426 86.3593 74.9315 68.7703 74.9315 47.0747C74.9315 37.1535 71.2523 28.0908 65.1832 21.176C73.3893 28.3745 78.569 38.9395 78.569 50.7122Z" fill="#FC4755"/>
<path d="M39.2844 80.3575C55.6571 80.3575 68.9297 67.0848 68.9297 50.7122C68.9297 34.3395 55.6571 21.0669 39.2844 21.0669C22.9118 21.0669 9.63916 34.3395 9.63916 50.7122C9.63916 67.0848 22.9118 80.3575 39.2844 80.3575Z" fill="#F5F5F5"/>
<path d="M68.9298 50.7122C68.9298 67.0844 55.6567 80.3575 39.2845 80.3575C30.1727 80.3575 22.0211 76.2453 16.5813 69.7779C21.7356 74.1101 28.3867 76.72 35.647 76.72C52.0192 76.72 65.2923 63.4469 65.2923 47.0747C65.2923 39.8143 62.6824 33.1633 58.3502 28.009C64.8176 33.4488 68.9298 41.6003 68.9298 50.7122Z" fill="#E6E6E6"/>
<path d="M39.2846 70.7182C50.3336 70.7182 59.2906 61.7612 59.2906 50.7122C59.2906 39.6631 50.3336 30.7061 39.2846 30.7061C28.2356 30.7061 19.2786 39.6631 19.2786 50.7122C19.2786 61.7612 28.2356 70.7182 39.2846 70.7182Z" fill="#FD646F"/>
<path d="M59.2905 50.7122C59.2905 61.761 50.3332 70.7182 39.2844 70.7182C32.8334 70.7182 27.0935 67.6646 23.436 62.9231C26.8134 65.5312 31.0492 67.0807 35.647 67.0807C46.6958 67.0807 55.653 58.1235 55.653 47.0747C55.653 42.477 54.1034 38.2411 51.4954 34.8638C56.2368 38.5212 59.2905 44.2611 59.2905 50.7122Z" fill="#FC4755"/>
<path d="M39.2845 60.8971C44.9094 60.8971 49.4694 56.3371 49.4694 50.7122C49.4694 45.0872 44.9094 40.5273 39.2845 40.5273C33.6595 40.5273 29.0996 45.0872 29.0996 50.7122C29.0996 56.3371 33.6595 60.8971 39.2845 60.8971Z" fill="#F5F5F5"/>
<path d="M76.454 63.4596C75.6792 65.7185 74.7062 67.8828 73.5531 69.9325L64.7832 65.8422C65.9854 63.8234 66.9529 61.6482 67.6495 59.3548L76.454 63.4596Z" fill="#FC4755"/>
<path d="M67.6495 59.3548C66.953 61.6482 65.9854 63.8234 64.7832 65.8422L55.9788 61.7373C57.2773 59.7785 58.2376 57.5797 58.7796 55.219L67.6495 59.3548Z" fill="#E6E6E6"/>
<path d="M58.7795 55.219C58.2375 57.5797 57.2772 59.7785 55.9786 61.7373L46.8813 57.496C48.4564 55.7319 49.4276 53.4166 49.4676 50.8759L58.7795 55.219Z" fill="#FC4755"/>
<path d="M49.4676 50.8759C49.4275 53.4166 48.4563 55.7319 46.8813 57.496L38.3606 53.5221C36.6946 52.7473 35.9162 50.8413 36.5109 49.1426C36.5509 49.0317 36.5946 48.9207 36.6455 48.8098C37.0602 47.9222 37.7931 47.2875 38.6479 46.9765C39.4991 46.6673 40.4721 46.68 41.3578 47.0947L49.4676 50.8759Z" fill="#E6E6E6"/>
<path d="M89.6957 16.404C89.987 16.4526 90.102 16.81 89.8936 17.0195L86.0457 20.885L83.685 23.2566L77.2343 29.7353C76.8198 30.1516 76.2296 30.342 75.6498 30.2466L66.0286 28.6619L73.2344 21.5143L75.6224 19.1463L80.0146 14.7886L89.6957 16.404Z" fill="#50758D"/>
<path d="M86.0457 20.885L83.685 23.2566L73.2346 21.5143L75.6226 19.1463L86.0457 20.885Z" fill="#2B597F"/>
<path d="M75.4101 10.5892L71.0396 14.865L68.6626 17.1912L61.4822 24.2169L59.8786 14.4725C59.7835 13.8945 59.9727 13.3062 60.3866 12.8919L66.8638 6.40792L69.2336 4.03448L73.1545 0.110571C73.3645 -0.099674 73.7243 0.0170884 73.771 0.310449L75.4101 10.5892Z" fill="#50758D"/>
<path d="M71.0396 14.865L68.6625 17.1912L66.8638 6.40793L69.2336 4.03448L71.0396 14.865Z" fill="#2B597F"/>
<path d="M83.7234 10.0017C83.7234 10.9074 83.3778 11.8168 82.6849 12.5079L42.3655 52.8273C41.0669 54.1277 39.0099 54.2077 37.6168 53.0674C37.5258 52.9928 37.4367 52.9128 37.3512 52.8273C36.6583 52.1344 36.3127 51.2287 36.3127 50.3193C36.3127 49.4136 36.6583 48.5042 37.3512 47.8131L77.6706 7.49369C79.0547 6.10782 81.3008 6.10782 82.6849 7.49369C82.7704 7.57917 82.8504 7.66829 82.925 7.75922C83.4578 8.41033 83.7234 9.20511 83.7234 10.0017Z" fill="#918291"/>
<path d="M83.7233 10.0017C83.7233 10.9075 83.3778 11.8168 82.6848 12.5079L42.3654 52.8274C41.0668 54.1278 39.0098 54.2078 37.6167 53.0674L82.9249 7.75925C83.4578 8.41035 83.7233 9.20514 83.7233 10.0017Z" fill="#7A6E79"/>
</g>
<defs>
<clipPath id="clip0_136_329">
<rect width="90" height="90" fill="white"/>
</clipPath>
</defs>
</svg>
